<?xml version="1.0" encoding="utf-8"?>
<!-- Generator: Adobe Illustrator 16.0.0, SVG Export Plug-In . SVG Version: 6.00 Build 0)  -->
<!DOCTYPE svg PUBLIC "-//W3C//DTD SVG 1.1//EN" "http://www.w3.org/Graphics/SVG/1.1/DTD/svg11.dtd">
<svg version="1.1" id="Layer_1" xmlns="http://www.w3.org/2000/svg" xmlns:xlink="http://www.w3.org/1999/xlink" x="0px" y="0px"
	 width="1645.417px" height="792px" viewBox="0 0 1645.417 792" enable-background="new 0 0 1645.417 792" xml:space="preserve">
<rect x="-5.996" y="-0.002" fill="#CECCDE" width="1651.412" height="792.004"/>
<g>
	<path fill="#E0DCEE" d="M784.572,597.814c13.97-21.332,7.642-40.254-3.335-58.109c0,0-25.693-35.223-27.864-40.055
		c-2.17-4.871-28.174-41.27-31.3-46.273c-4.439-7.119-14.933-0.33-9.84,7.816c5.296,8.504,23.157,38.297,22.722,40.859
		c-0.434,2.563-3.005,2.322-3.96,0.813c-0.956-1.547-31.613-54.438-36.807-58.752c-6.282-5.197-13.314,0.76-11.688,6.441
		c1.962,6.924,39.005,58.162,36.723,61.734c-0.706,1.137-1.866,1.137-2.878,0.5c-6.085-3.857-41.022-59.887-41.336-60.27
		c-3.738-4.521-12.548-3.504-12.165,4.17c0.488,9.871,42.301,64.883,40.113,68.232c-0.375,0.563-1.473,1.24-2.399,0.723
		c-5.858-3.252-33.749-50.443-38.343-54.938c-5.714-5.584-10.2,0.365-10.139,4.521c0.082,6.564,12.484,26.852,20.029,41.555
		c6.493,12.666,37.035,61.521,37.273,61.781c0.231,0.258-29.808-16.395-48.646-4.834c-8.025,5.949-8.057,10.434-0.841,13.418
		c11.128,4.617,18.58,3.635,43.289,17.07c3.082,3.834,10.206,10.648,14.642,12.193c6.77,2.377,34.204,5.529,48.547-2.33
		C774.52,609.613,782.462,600.092,784.572,597.814"/>
	<path fill="#E0DCEE" d="M833.437,172.903c-7.84,0-11.766,6.664-11.766,19.171c-3.291-1.529-2.526,6.386-1.64,8.745
		c0.735,1.465,1.64,2.08,2.275,2.224c0,0-0.688,5.043,0.89,5.833c0.374,2.364,0.618,9.256,0.387,10.318
		c-0.234,1.06-13.176,9.684-15.705,10.93c-7.465-0.835-17.837,8.331-17.967,22.359c-0.257,5.973,1.899,7.919,1.646,10.837
		c-0.256,2.924-4.682,6.944-4.303,21.112c-0.631,1.795-4.938,17.776-4.682,29.032c0.251,11.244,3.168,36.527,1.772,46.801
		c-0.636,4.519-1.235,8.173,0.509,10.165c2.429,2.715,8.356,12.935,8.933,12.648c2.93-1.474-2.145-11.148-2.358-13.506
		c-0.105-1.144,0.571-8.504,0.571-8.504s0.804,6.501,2.572,6.218c1.771-0.27-0.971-11.048-1.856-12.293
		c-0.885-1.251,2.004-45.29,4.664-54.17c1.269-4.454,0.878-9.585,1.01-11.398c0.132-1.794,7.414-20.386,6.009-26.79
		c1.012-5.557,0.825-14.043,0.825-14.043c1.266,0-0.42,20.887,0.47,26.986c0,0,2.549,16.214,2.304,21.358
		c-0.243,5.128-0.997,41.521-2.021,47.217c-1.009,5.702-2.277,27.499-2.143,37.219c0.124,9.727,1.895,22.368,1.895,24.172
		s-1.505,13.627-1.398,16.959c0.139,3.314-3.413,14.006-3.413,20.422c0,6.387,2.917,35.4,2.782,40.814
		c-0.113,5.422-0.883,12.363-1.639,13.605c-2.526,8.084-11.768,12.791-11.899,15.15c0,0-1.763,7.217,11.639,6.119
		c5.83-1.672,6.198-4.459,6.198-4.459s-0.243-3.875,0.509-4.564c0.769-0.695,4.053-0.43,4.94-2.369
		c0.891-1.947-0.753-8.475-0.123-9.877c0.636-1.377,1.273-1.652,1.131-3.039c-0.117-1.393-2.018-5.564-1.761-7.779
		c-0.257-9.451,8.594-30.264,8.475-36.535c-0.128-6.236-1.136-13.873-1.136-16.527c0-2.635,4.174-13.748,4.431-16.803
		c0.249-3.055,2.401-18.879,3.794-22.65c1.389-3.753,8.731-26.808,8.344-34.855c-0.245-5.414,0.521-9.444,1.273-9.587
		c0.762-0.132,1.15,8.898,1.01,17.501c-0.761,13.202,3.665,38.894,3.665,43.337c0,0,2.792,11.943,2.919,15.41
		c0.124,3.494-3.039,14.033-2.919,20.439c0.14,6.379,4.065,26.531,3.927,29.291c0.251,8.602-4.047,12.354-4.047,15.426
		c0,0,0.755,9.176,0.755,10.551c0,1.402-0.879,6.111-0.755,8.469c0.12,2.367,1.657,6.387,3.287,6.807
		c1.649,0.43,13.417,0.295,14.438-3.457c1.008-3.752-4.191-11.668-4.816-13.193c-0.634-1.537,0.886-6.396,0.625-8.344
		c-0.248-1.947-1.374-6.807-0.625-9.996c0.769-3.199,8.361-35.697,8.104-42.512c-0.261-6.807-2.537-15.553-2.029-28.479
		c0.385-5.83-0.883-11.395-0.383-13.191c0.508-1.803,4.43-15.695,4.564-20.553c0.116-4.868,2.402-27.916,1.268-35.277
		c-1.151-7.364-3.929-22.92-8.485-31.681c-0.375-7.633-2.904-12.635-2.904-18.325c0-5.7,2.529-13.886,2.654-18.06
		c0.125-4.162-0.125-23.327,0.509-23.327s0,21.109,0.499,22.775c-0.634,4.863,3.664,16.812,4.933,18.611
		c-2.403,10.692,6.708,33.061,8.611,40.556c1.232,3.863,0.955,25.661,0.955,25.661s-1.009,13.135,0.982,13.135
		c1.243,0,0.296-6.182,1.145-6.002c0,0,2.045,4.296,1.714,10.674c0.125,6.387-3.063,12.417-1.045,12.961
		c2.476,0.661,7.772-16.087,7.906-17.061c0.125-0.975-2.806-12.371-2.556-14.459c0.25-2.071,0-45.187-0.374-48.519
		c-0.376-3.334-4.307-17.223-6.198-19.176c0.633-2.63,0.383-18.048-3.298-22.073c1.911-3.891,5.958-32.502-13.533-35.002
		c-4.439-3.61-14.044-11.39-15.066-13.329c-0.424-1.805-0.372-10.006,0.255-10.283c0.625-0.28,1.394-3.607,1.269-5.136
		c1.261-0.143,4.813-3.34,3.423-10.415c-0.646-1.394-2.028-0.563-2.028-0.563S848.119,172.903,833.437,172.903z"/>
	<path fill="#E0DCEE" d="M772.945,560.93"/>
	<path fill="#E0DCEE" d="M860.795,597.762c-13.916-21.314-7.567-40.201,3.421-58.029c0,0,25.728-35.135,27.897-39.975
		c2.179-4.852,28.22-41.172,31.338-46.158c4.439-7.109,14.926-0.313,9.826,7.816c-5.316,8.496-23.19,38.225-22.771,40.771
		c0.428,2.563,3.002,2.322,3.957,0.82c0.948-1.537,31.668-54.313,36.866-58.637c6.271-5.189,13.303,0.787,11.668,6.469
		c-1.982,6.906-39.057,58.037-36.787,61.602c0.716,1.135,1.858,1.135,2.876,0.5c6.094-3.832,41.065-59.752,41.378-60.135
		c3.743-4.504,12.55-3.469,12.168,4.197c-0.529,9.861-42.37,64.729-40.199,68.078c0.375,0.58,1.482,1.25,2.403,0.74
		c5.858-3.242,33.774-50.336,38.384-54.83c5.717-5.564,10.177,0.385,10.122,4.529c-0.079,6.584-12.515,26.826-20.063,41.494
		c-6.512,12.648-37.116,61.389-37.332,61.637c-0.24,0.262,29.783-16.32,48.586-4.742c8.021,5.949,8.042,10.416,0.831,13.408
		c-11.121,4.6-18.57,3.6-43.279,16.965c-3.083,3.83-10.211,10.639-14.632,12.174c-6.763,2.367-34.179,5.469-48.496-2.42
		C870.819,609.57,862.894,600.039,860.795,597.762"/>
</g>
<g>
	<rect x="-6.012" y="-0.002" fill="#131347" width="1651.443" height="23.231"/>
	<rect x="-6.012" y="23.229" fill="#8A89C2" width="1651.443" height="16.904"/>
</g>
<rect x="-6.012" y="786.258" fill="#131347" width="1651.442" height="5.736"/>
<rect x="-6.012" y="781.715" fill="#8A89C2" width="1651.442" height="4.543"/>
</svg>
